<?xml version="1.0" standalone="no"?>
<!DOCTYPE svg PUBLIC "-//W3C//DTD SVG 20010904//EN"
 "http://www.w3.org/TR/2001/REC-SVG-20010904/DTD/svg10.dtd">
<svg version="1.0" xmlns="http://www.w3.org/2000/svg"
 width="723.000000pt" height="723.000000pt" viewBox="0 0 723.000000 723.000000"
 preserveAspectRatio="xMidYMid meet">
<metadata>
Created by potrace 1.11, written by Peter Selinger 2001-2013
</metadata>
<g transform="translate(0.000000,723.000000) scale(0.100000,-0.100000)"
fill="#000000" stroke="none">
<path d="M5634 6999 c-2 -4 -15 -5 -29 -4 -14 2 -25 0 -25 -4 0 -4 -11 -8 -25
-9 -46 -3 -55 -5 -55 -13 0 -4 -8 -6 -17 -5 -10 2 -21 -1 -24 -5 -6 -10 -32
-11 -104 -4 -27 2 -70 6 -95 8 -25 3 -49 2 -55 -2 -5 -3 -27 -6 -47 -7 -21 -1
-39 -2 -40 -4 -2 -1 -14 -3 -28 -5 -14 -2 -38 -7 -55 -10 -34 -7 -84 -15 -102
-17 -7 -1 -13 -5 -13 -9 0 -4 -11 -6 -24 -3 -14 2 -27 0 -31 -5 -3 -6 -12 -8
-20 -4 -8 3 -15 1 -15 -4 0 -5 -11 -10 -25 -11 -46 -3 -55 -5 -55 -12 0 -4
-13 -6 -30 -4 -16 2 -30 0 -30 -5 0 -5 -10 -9 -22 -10 -53 -1 -117 -13 -135
-24 -7 -5 -13 -6 -13 -2 0 3 -16 -1 -35 -9 -20 -9 -38 -15 -40 -16 -3 0 -8 -1
-12 -1 -5 -1 -44 -3 -88 -4 -44 -1 -82 -3 -85 -5 -3 -1 -23 -3 -45 -5 -22 -1
-40 -3 -40 -5 0 -3 -38 -12 -57 -13 -10 -1 -18 -5 -18 -9 0 -4 -7 -8 -16 -8
-8 0 -36 -9 -61 -21 -25 -11 -64 -23 -87 -26 -57 -7 -68 -9 -89 -18 -10 -4
-21 -5 -24 -1 -3 3 -12 1 -20 -5 -7 -6 -13 -8 -13 -4 0 4 -6 3 -12 -2 -7 -5
-32 -15 -55 -23 -24 -7 -43 -17 -43 -22 0 -4 -3 -7 -7 -6 -19 6 -194 -62 -213
-82 -3 -3 -27 -6 -55 -7 -69 -3 -145 -11 -175 -18 -14 -3 -36 -8 -48 -11 -13
-3 -34 -11 -46 -19 -13 -8 -26 -12 -29 -8 -4 3 -7 1 -7 -6 0 -7 -5 -9 -10 -6
-6 3 -12 0 -15 -7 -5 -12 -25 -18 -72 -21 -7 0 -13 -4 -13 -9 0 -5 -4 -7 -9
-4 -5 3 -21 -1 -37 -9 -15 -7 -31 -12 -36 -9 -4 3 -8 0 -8 -5 0 -6 -9 -11 -19
-11 -10 0 -21 -7 -25 -15 -3 -8 -12 -15 -20 -15 -19 0 -136 -60 -136 -70 0 -5
-8 -7 -17 -6 -10 2 -21 -1 -24 -6 -4 -6 -23 -10 -43 -10 -20 0 -34 -4 -31 -8
3 -5 -3 -8 -12 -8 -10 0 -31 -5 -48 -12 -16 -7 -39 -15 -50 -17 -10 -2 -22 -7
-25 -11 -3 -4 -10 -8 -17 -9 -23 -5 -162 -73 -168 -83 -4 -6 -10 -8 -14 -6 -4
3 -17 -4 -29 -14 -12 -11 -24 -20 -28 -20 -4 0 -27 -16 -50 -36 -24 -19 -44
-32 -44 -29 0 4 -19 -17 -42 -47 -23 -29 -45 -55 -50 -56 -4 -2 -5 -8 -2 -13
3 -6 0 -18 -8 -27 -21 -27 -38 -61 -38 -77 0 -8 -5 -15 -11 -15 -6 0 -9 -6 -6
-14 3 -8 3 -17 -1 -20 -3 -4 -7 -13 -9 -21 -6 -30 -10 -41 -27 -80 -10 -22
-20 -53 -23 -70 -3 -16 -8 -37 -12 -45 -11 -23 -3 -260 9 -260 3 0 6 -10 7
-21 2 -26 39 -105 52 -114 6 -3 8 -12 4 -20 -3 -8 0 -15 6 -15 6 0 16 -12 22
-26 5 -15 12 -24 16 -21 6 7 83 -108 83 -124 0 -6 5 -7 10 -4 6 3 10 -1 10
-10 0 -9 5 -13 10 -10 6 3 10 1 10 -5 0 -19 34 -57 48 -52 6 2 12 -3 12 -12 0
-9 4 -16 9 -16 5 0 9 -16 8 -35 -1 -19 -5 -35 -9 -35 -3 0 -5 -8 -3 -17 1 -10
0 -22 -4 -28 -3 -5 -6 -29 -7 -52 -1 -23 -5 -50 -9 -60 -5 -10 -9 -20 -10 -23
-8 -31 -29 -87 -36 -94 -5 -6 -9 -16 -9 -23 0 -7 -16 -46 -36 -87 -19 -41 -38
-91 -41 -110 -3 -20 -9 -34 -13 -31 -6 4 -9 -16 -13 -85 -1 -28 -25 -52 -45
-45 -6 2 -12 0 -12 -6 0 -6 -4 -8 -9 -5 -4 3 -16 -1 -27 -8 -10 -8 -24 -12
-31 -9 -7 3 -13 1 -13 -4 0 -10 -67 -36 -84 -33 -5 1 -12 -3 -16 -9 -3 -6 -17
-14 -31 -16 -13 -3 -25 -9 -27 -15 -2 -6 -8 -8 -13 -5 -4 3 -22 -1 -39 -10
-16 -8 -30 -13 -30 -9 0 4 -7 1 -15 -6 -8 -7 -15 -9 -15 -5 0 4 -7 2 -15 -5
-8 -6 -18 -9 -24 -6 -5 3 -11 2 -13 -3 -3 -9 -21 -13 -111 -27 -21 -3 -44 -7
-50 -8 -38 -6 -127 -40 -127 -48 0 -5 -4 -7 -9 -3 -5 3 -15 -1 -23 -8 -7 -7
-21 -16 -30 -20 -10 -3 -18 -11 -18 -17 0 -5 -7 -10 -15 -10 -8 0 -15 -5 -15
-11 0 -5 -4 -8 -9 -5 -5 3 -17 -5 -27 -19 -10 -13 -21 -22 -25 -19 -4 2 -21
-9 -38 -26 -18 -16 -35 -30 -39 -30 -4 -1 -18 -11 -32 -22 -14 -11 -18 -16
-10 -13 8 4 -3 -9 -25 -29 -22 -19 -35 -36 -30 -36 6 0 2 -5 -7 -11 -10 -5
-18 -16 -18 -24 0 -7 -3 -15 -7 -17 -9 -3 -62 -107 -64 -123 0 -5 -6 -19 -12
-30 -10 -18 -18 -58 -20 -97 -1 -10 -4 -18 -7 -18 -8 0 -5 -229 4 -260 4 -14
8 -36 10 -50 1 -14 8 -35 15 -47 6 -13 9 -23 5 -23 -3 0 -1 -7 6 -15 7 -8 9
-15 5 -15 -4 0 -2 -6 4 -13 6 -8 8 -17 4 -20 -3 -4 -1 -7 5 -7 6 0 14 -10 18
-22 11 -37 96 -154 126 -174 15 -10 25 -20 24 -22 -6 -6 39 -46 67 -61 15 -8
27 -18 27 -23 0 -5 13 -14 30 -19 17 -6 27 -16 23 -22 -4 -6 0 -8 10 -4 10 3
17 3 17 -2 0 -15 182 -98 202 -93 5 1 8 -2 8 -6 0 -5 6 -9 13 -9 6 -1 39 -4
72 -8 70 -7 85 -8 143 -1 38 4 42 3 43 -17 1 -12 1 -25 0 -30 -1 -4 -2 -25 -3
-47 -1 -21 -4 -38 -7 -36 -3 2 -6 -10 -7 -27 -1 -18 -4 -61 -9 -97 -11 -98
-14 -250 -4 -255 4 -3 6 -12 2 -20 -3 -9 0 -22 7 -30 7 -8 9 -15 5 -15 -4 0
-2 -7 5 -15 7 -8 10 -15 6 -15 -4 0 3 -18 14 -40 11 -22 18 -40 14 -40 -3 0 2
-7 10 -16 9 -8 16 -23 17 -32 0 -9 3 -30 5 -47 3 -16 7 -38 8 -47 1 -10 5 -21
9 -24 4 -4 7 -16 7 -26 0 -10 5 -18 10 -18 6 0 9 -3 8 -7 -4 -14 13 -53 23
-53 5 0 9 -11 9 -25 0 -15 6 -25 14 -25 7 0 19 -14 26 -30 7 -17 17 -30 22
-30 6 0 8 -7 5 -15 -4 -8 -2 -17 4 -20 5 -4 7 -11 4 -16 -4 -5 -2 -9 3 -9 6 0
8 -10 4 -22 -3 -14 -2 -19 6 -14 7 4 12 1 12 -9 0 -23 34 -86 64 -118 14 -15
26 -33 26 -39 0 -6 2 -9 5 -6 7 7 75 -60 75 -74 0 -5 3 -7 8 -4 4 2 16 -13 26
-35 11 -21 23 -39 27 -39 5 0 6 -6 3 -14 -3 -8 3 -16 16 -19 12 -3 19 -10 16
-16 -4 -5 8 -24 27 -40 30 -28 47 -71 27 -71 -4 0 -7 -8 -5 -17 1 -10 -2 -24
-8 -30 -5 -7 -6 -13 -2 -13 4 0 3 -6 -2 -12 -20 -25 -19 -104 0 -135 5 -7 6
-16 4 -20 -3 -5 12 -9 34 -10 25 -1 38 3 36 10 -1 7 4 11 11 9 6 -1 12 2 12 7
0 14 40 5 54 -12 6 -7 20 -20 30 -27 18 -13 19 -13 12 0 -4 8 -1 6 8 -4 13
-16 30 -19 103 -21 49 -1 93 1 98 4 6 3 19 7 30 8 34 4 59 9 80 17 49 19 85
37 89 44 3 4 44 7 93 7 48 -1 93 1 98 4 6 3 31 6 58 7 26 1 48 3 50 4 1 1 22
4 47 5 25 1 77 6 115 10 39 4 79 8 90 9 11 1 26 6 34 10 10 7 12 6 6 -4 -6 -9
-4 -11 6 -4 8 4 27 10 44 12 16 2 39 4 50 5 11 2 26 6 33 10 6 5 12 6 12 3 0
-3 19 2 43 10 23 9 47 17 52 18 6 1 20 8 33 14 12 7 22 9 22 5 0 -4 5 0 11 10
5 9 16 17 23 17 7 0 21 9 31 20 10 11 20 18 23 15 3 -3 11 0 19 6 7 6 13 8 13
4 0 -3 16 3 35 15 19 12 35 18 35 14 0 -4 7 1 16 12 8 10 12 12 8 4 -7 -13 -6
-13 11 0 11 8 27 23 37 33 10 9 23 17 30 17 6 0 8 3 5 6 -8 8 85 54 95 48 5
-3 8 0 8 5 0 6 5 11 10 11 11 0 24 10 61 43 10 9 23 17 28 17 5 0 18 11 29 25
11 14 25 25 30 25 6 0 15 6 19 14 4 7 18 18 31 25 12 6 22 18 22 26 0 33 153
163 200 170 9 1 55 28 60 34 9 12 70 53 83 55 19 4 52 19 57 26 10 13 99 70
109 70 6 0 11 3 11 8 0 8 48 32 65 32 6 0 21 9 33 20 12 12 22 18 22 15 0 -5
29 17 56 43 8 7 14 10 14 5 0 -4 6 -1 13 7 7 8 32 28 57 45 25 16 47 32 50 35
3 3 37 28 75 55 39 27 73 54 77 59 4 6 8 7 8 3 0 -4 12 5 26 20 14 15 22 21
18 13 -4 -8 6 -3 22 11 46 40 102 79 114 79 6 0 8 5 5 10 -3 6 -1 10 4 10 6 0
28 16 48 35 20 19 33 35 28 35 -5 0 1 7 13 16 12 8 20 20 16 25 -3 5 -1 8 4 7
6 -2 10 1 10 6 0 5 5 12 10 15 5 3 26 26 47 51 94 114 111 134 123 147 7 7 11
13 7 13 -3 0 4 11 17 24 50 53 68 74 68 80 0 3 18 25 40 48 22 24 40 46 40 50
0 3 8 14 17 24 43 43 113 139 125 170 6 19 16 34 20 34 4 0 7 3 6 8 -1 8 6 30
34 92 26 57 40 92 44 105 1 6 12 32 24 58 12 26 23 58 25 69 6 27 -15 98 -27
98 -5 0 -6 5 -3 10 3 6 1 10 -4 10 -6 0 -10 3 -9 8 1 4 -3 17 -10 30 -7 12
-10 22 -6 22 3 0 1 6 -5 13 -6 8 -9 16 -6 18 2 3 -9 20 -25 37 -16 18 -27 32
-24 32 2 0 -8 13 -22 30 -15 16 -30 27 -34 25 -14 -8 -86 38 -126 82 -24 26
-52 46 -70 49 -16 3 -33 12 -37 20 -5 8 -12 12 -18 9 -5 -4 -9 -1 -9 5 0 10
-101 62 -130 66 -8 2 -26 6 -40 9 -28 8 -212 9 -250 2 -56 -11 -130 -38 -130
-48 0 -6 -5 -7 -11 -4 -6 4 -17 -1 -25 -11 -9 -11 -13 -13 -9 -4 4 8 -6 2 -20
-15 -15 -16 -24 -23 -20 -15 3 8 -1 6 -9 -4 -9 -11 -16 -17 -16 -13 0 3 -11
-4 -23 -16 -13 -12 -23 -26 -23 -32 1 -5 -5 -9 -11 -8 -7 2 -13 -4 -13 -13 0
-8 -4 -13 -9 -9 -5 3 -12 -3 -15 -12 -3 -10 -18 -31 -33 -48 -16 -16 -27 -32
-25 -35 1 -3 -2 -5 -6 -5 -5 0 -15 -7 -24 -15 -8 -8 -39 -35 -68 -60 -29 -25
-64 -55 -78 -68 -13 -13 -43 -35 -65 -50 -23 -15 -52 -37 -64 -49 -12 -12 -32
-24 -43 -28 -11 -3 -20 -11 -20 -16 0 -5 -7 -9 -15 -9 -8 0 -15 -4 -15 -10 0
-5 -4 -9 -9 -7 -5 1 -23 -10 -40 -25 -17 -16 -35 -28 -39 -28 -5 0 -17 -8 -28
-17 -28 -26 -92 -74 -141 -107 -24 -16 -43 -33 -43 -38 0 -5 -4 -6 -10 -3 -5
3 -10 2 -10 -4 0 -5 -9 -13 -20 -16 -11 -4 -18 -11 -15 -16 4 -5 2 -9 -4 -9
-9 0 -41 -26 -131 -104 -14 -13 -40 -29 -58 -37 -18 -7 -32 -17 -32 -22 0 -4
-11 -12 -25 -17 -14 -5 -25 -14 -25 -20 0 -5 -3 -9 -7 -9 -19 3 -32 -3 -59
-26 -15 -13 -30 -22 -32 -20 -2 2 -15 -8 -27 -21 -13 -14 -27 -24 -30 -23 -7
2 -19 -6 -102 -68 -24 -18 -43 -30 -43 -25 0 4 -9 -6 -20 -23 -11 -16 -20 -26
-20 -21 0 5 -9 -1 -20 -14 -11 -13 -20 -19 -20 -15 0 4 -8 1 -17 -7 -10 -8
-33 -20 -50 -28 -18 -7 -33 -17 -33 -22 0 -6 -7 -8 -15 -4 -8 3 -15 1 -15 -4
0 -6 -9 -10 -19 -10 -10 0 -21 -7 -25 -15 -3 -8 -15 -15 -26 -15 -11 0 -20 -5
-20 -11 0 -5 -4 -8 -9 -4 -5 3 -16 -2 -25 -10 -8 -9 -18 -16 -21 -15 -3 0 -6
0 -7 -1 -2 0 -10 -2 -18 -4 -16 -4 -48 -12 -80 -20 -89 -22 -87 -28 -93 195
-1 52 -6 101 -10 108 -5 6 -6 16 -2 21 3 5 2 12 -3 15 -12 7 -5 108 15 216 2
14 5 40 6 58 1 17 4 32 7 32 3 0 7 19 8 42 2 24 5 52 9 63 3 11 7 36 8 55 1
33 3 35 41 38 76 5 119 10 122 12 1 1 16 4 32 5 17 1 31 4 33 5 1 1 16 4 32 5
17 2 30 4 30 5 0 1 7 3 15 5 8 2 29 6 45 10 17 3 36 7 43 7 6 1 12 5 12 10 0
4 3 7 8 6 4 0 16 2 27 6 11 4 31 12 45 16 14 4 34 12 45 16 11 4 34 8 50 9 17
1 32 3 35 4 4 2 56 9 98 13 6 1 12 5 12 9 0 22 40 -10 78 -62 24 -32 47 -59
52 -59 4 0 16 29 25 65 10 36 21 65 25 65 4 0 20 -18 35 -40 15 -22 31 -40 34
-40 4 0 19 47 35 105 26 95 31 105 53 105 12 0 23 5 23 11 0 5 4 7 10 4 5 -3
20 0 32 7 13 7 26 11 31 10 4 -1 7 3 7 9 0 5 4 8 9 5 5 -4 11 -2 13 4 1 5 14
11 28 14 14 2 26 5 28 7 1 1 10 2 20 3 9 1 33 6 52 11 19 5 38 8 43 7 4 -1 7
3 7 8 0 6 11 10 23 10 13 0 27 3 31 7 4 5 12 9 17 9 5 1 10 3 12 4 1 1 34 4
72 5 39 2 81 6 95 10 14 3 30 7 35 8 25 6 82 32 99 46 16 13 18 13 11 1 -8
-13 -7 -13 11 0 10 8 25 22 32 30 12 13 13 13 7 0 -4 -10 -2 -9 8 3 8 9 20 17
26 17 7 0 10 4 7 9 -3 4 5 13 17 18 13 6 34 27 47 47 14 19 36 40 50 45 36 13
64 22 70 22 3 0 12 7 21 15 9 8 18 11 22 8 3 -3 12 -2 19 2 7 5 15 9 18 10 6
1 32 11 73 28 15 6 27 14 27 18 0 5 7 8 15 8 9 0 18 7 21 15 4 8 12 15 19 15
12 0 85 66 85 77 0 3 17 26 37 52 21 25 32 41 25 37 -8 -5 -3 9 11 30 13 22
27 48 31 60 4 15 24 26 67 39 33 10 62 22 65 26 2 4 -22 29 -53 56 l-58 48 -2
65 c-2 89 -9 123 -33 170 -11 22 -17 40 -13 40 5 0 3 4 -2 8 -11 7 -40 50 -46
67 -5 17 -24 33 -31 28 -5 -2 -8 3 -8 11 0 9 -5 16 -11 16 -5 0 -7 5 -4 10 3
6 2 10 -3 10 -5 0 -20 9 -33 21 -13 11 -34 29 -46 40 -13 10 -23 16 -23 12 0
-3 -9 2 -20 12 -11 10 -20 14 -20 9 0 -5 -4 -4 -8 2 -11 17 -133 75 -143 68
-5 -3 -9 0 -9 6 0 6 -4 9 -9 5 -5 -3 -13 0 -16 6 -4 5 -13 8 -20 5 -7 -2 -16
-2 -19 2 -4 3 -14 7 -24 9 -84 16 -174 25 -247 25 -88 -1 -239 -17 -259 -29
-9 -6 -41 -13 -73 -15 -7 -1 -13 -6 -13 -11 0 -6 -3 -8 -6 -5 -3 3 -33 -5 -67
-19 -87 -35 -149 -53 -159 -47 -4 3 -8 2 -8 -3 0 -4 -25 -8 -55 -7 -30 0 -55
-2 -55 -6 0 -4 -10 -7 -22 -7 -32 1 -91 -13 -105 -25 -7 -6 -13 -7 -13 -4 0 8
-40 -13 -114 -61 -49 -32 -70 -35 -128 -17 -9 3 -19 1 -22 -4 -3 -5 -28 -8
-56 -7 -27 1 -50 -2 -50 -6 0 -5 -7 -6 -15 -3 -8 4 -12 10 -9 15 3 5 7 18 10
29 2 11 6 28 8 38 2 10 11 34 18 53 8 18 13 40 10 48 -3 9 0 11 8 6 8 -5 11
-4 7 2 -4 6 0 24 8 39 8 16 15 37 15 47 0 9 5 17 11 17 5 0 8 4 4 9 -3 5 -1
12 4 16 6 3 8 12 4 20 -3 8 0 15 7 15 6 0 8 5 5 10 -3 6 -1 10 4 10 6 0 11 9
11 19 0 11 8 27 18 37 9 10 16 20 16 23 -2 6 4 22 27 76 7 17 12 33 11 38 -1
4 3 7 9 7 5 0 7 5 4 10 -3 6 1 10 10 10 9 0 14 4 11 8 -3 5 5 18 18 28 21 18
29 21 66 29 8 2 17 4 20 5 3 2 19 3 35 5 17 1 32 3 35 4 6 3 24 7 59 15 12 3
29 10 37 17 8 6 14 8 14 4 0 -4 11 0 25 9 14 9 25 13 25 10 0 -4 11 5 26 21
14 15 27 25 30 22 3 -3 21 9 40 27 28 26 41 32 76 31 24 -1 48 1 53 4 6 3 21
7 35 7 14 1 27 3 30 4 3 2 10 4 15 5 38 6 208 83 213 97 2 4 10 8 18 8 8 0 14
3 14 8 0 4 30 8 68 8 37 1 76 4 87 6 56 13 111 31 132 45 12 8 23 11 23 7 0
-5 4 -4 8 2 15 22 79 41 129 40 29 -1 50 1 47 5 -2 5 11 6 31 5 19 -2 35 0 35
5 0 4 9 6 20 4 11 -2 47 7 81 20 43 17 66 22 79 15 9 -5 20 -6 24 -3 3 3 25 8
48 9 24 1 52 5 63 8 11 3 40 11 65 17 25 7 50 20 57 28 7 9 13 12 13 8 0 -5
20 3 45 18 25 14 50 23 55 20 6 -3 10 -3 10 2 0 9 61 39 73 35 4 -1 7 3 7 8 0
6 6 10 14 10 7 0 19 7 26 15 6 8 15 14 18 13 4 -1 25 7 47 17 22 10 43 19 47
19 4 1 16 9 27 18 11 9 22 14 25 11 3 -4 6 -1 6 6 0 7 5 11 12 9 12 -4 30 7
81 55 17 15 34 27 38 27 5 0 9 7 9 15 0 8 4 15 8 15 10 0 68 91 65 102 -2 4 1
8 6 8 5 0 12 10 16 23 4 12 8 24 9 27 30 67 39 117 38 205 -1 85 -6 125 -15
125 -5 0 -7 7 -3 15 3 8 0 28 -6 43 -6 15 -12 33 -14 41 -1 8 -9 18 -16 22 -7
5 -9 9 -5 9 5 0 -2 14 -14 32 -13 17 -16 28 -8 23 7 -4 3 4 -11 19 -14 15 -25
31 -25 34 0 4 -4 6 -8 4 -5 -1 -6 1 -3 6 6 10 -60 83 -68 75 -3 -4 -6 1 -6 10
0 10 -3 16 -7 15 -5 -2 -9 0 -10 5 -6 15 -38 44 -46 40 -4 -2 -10 3 -13 11 -3
9 -10 14 -14 11 -4 -3 -13 2 -20 10 -7 8 -16 12 -21 9 -5 -3 -9 -1 -9 5 0 8
-19 18 -50 26 -3 1 -18 7 -35 14 -16 7 -38 15 -47 17 -10 2 -28 7 -40 10 -13
3 -32 7 -43 9 -11 2 -20 4 -20 5 0 6 -217 4 -221 -1z"/>
<path d="M1891 479 c-10 -10 -21 -16 -23 -14 -2 2 -3 -19 -3 -47 0 -66 24 -88
92 -82 27 2 49 8 51 13 2 6 10 7 19 4 11 -4 14 -2 9 5 -4 7 -1 15 7 18 17 6
16 76 -1 82 -7 2 -10 7 -7 12 16 26 -117 34 -144 9z"/>
<path d="M1695 306 c-10 -7 -19 -27 -20 -44 -2 -41 31 -57 77 -38 28 12 33 19
33 50 1 20 -2 37 -5 37 -38 8 -70 6 -85 -5z"/>
<path d="M2596 200 c-1 -3 -2 -18 -2 -35 1 -31 17 -38 60 -24 21 6 29 46 12
57 -13 8 -66 10 -70 2z"/>
</g>
</svg>
